HIERARCHY
ROOT SpineBase
{
  OFFSET 0.000000 0.000000 0.000000
  CHANNELS 6 Xposition Yposition Zposition Zrotation Xrotation Yrotation
  JOINT SpineMid
  {
    OFFSET 0.000000 35.579037 0.000000
    CHANNELS 3 Zrotation Xrotation Yrotation
    JOINT SpineShoulder
    {
      OFFSET -0.026499 26.939034 -0.940904
      CHANNELS 3 Zrotation Xrotation Yrotation
      JOINT Neck
      {
        OFFSET 0.034216 8.907968 -0.734257
        CHANNELS 3 Zrotation Xrotation Yrotation
        JOINT Head
        {
          OFFSET 1.577619 10.827611 4.302814
          CHANNELS 3 Zrotation Xrotation Yrotation
          End Site
          {
            OFFSET 0 0 0
          }
        }
      }
      JOINT ShoulderLeft
      {
        OFFSET -13.410177 -4.611849 -1.741951
        CHANNELS 3 Zrotation Xrotation Yrotation
        JOINT ElbowLeft
        {
          OFFSET 18.887779 -16.762432 -8.526536
          CHANNELS 3 Zrotation Xrotation Yrotation
          JOINT WristLeft
          {
            OFFSET 12.555296 -22.462223 -1.393207
            CHANNELS 3 Zrotation Xrotation Yrotation
            JOINT HandLeft
            {
              OFFSET 0.050399 -9.005553 2.146642
              CHANNELS 3 Zrotation Xrotation Yrotation
              JOINT HandTipLeft
              {
                OFFSET 3.879400 -7.774855 -0.727197
                CHANNELS 3 Zrotation Xrotation Yrotation
                End Site
                {
                  OFFSET 0 0 0
                }
              }
              JOINT ThumbLeft
              {
                OFFSET -2.725142 -0.185298 -3.771125
                CHANNELS 3 Zrotation Xrotation Yrotation
                End Site
                {
                  OFFSET 0 0 0
                }
              }
            }
          }
        }
      }
      JOINT ShoulderRight
      {
        OFFSET 9.777518 -5.448046 -12.367502
        CHANNELS 3 Zrotation Xrotation Yrotation
        JOINT ElbowRight
        {
          OFFSET 5.463389 -25.097152 -0.841570
          CHANNELS 3 Zrotation Xrotation Yrotation
          JOINT WristRight
          {
            OFFSET 5.883728 -24.033955 5.623675
            CHANNELS 3 Zrotation Xrotation Yrotation
            JOINT HandRight
            {
              OFFSET -1.522612 -4.789755 -0.815683
              CHANNELS 3 Zrotation Xrotation Yrotation
              JOINT HandTipRight
              {
                OFFSET 0.365379 -4.100031 -0.680063
                CHANNELS 3 Zrotation Xrotation Yrotation
                End Site
                {
                  OFFSET 0 0 0
                }
              }
              JOINT ThumbRight
              {
                OFFSET -2.559721 3.344668 -3.494469
                CHANNELS 3 Zrotation Xrotation Yrotation
                End Site
                {
                  OFFSET 0 0 0
                }
              }
            }
          }
        }
      }
    }
  }
  JOINT HipLeft
  {
    OFFSET -5.722011 0.938244 -1.079624
    CHANNELS 3 Zrotation Xrotation Yrotation
    JOINT KneeLeft
    {
      OFFSET -0.408941 -34.272918 -0.148019
      CHANNELS 3 Zrotation Xrotation Yrotation
      JOINT AnkleLeft
      {
        OFFSET -0.567972 -35.582333 1.475009
        CHANNELS 3 Zrotation Xrotation Yrotation
        JOINT FootLeft
        {
          OFFSET 10.620743 -4.400084 -8.111099
          CHANNELS 3 Zrotation Xrotation Yrotation
          End Site
          {
            OFFSET 0 0 0
          }
        }
      }
    }
  }
  JOINT HipRight
  {
    OFFSET 6.328566 2.794735 -6.551835
    CHANNELS 3 Zrotation Xrotation Yrotation
    JOINT KneeRight
    {
      OFFSET 0.369781 -34.590740 -3.952519
      CHANNELS 3 Zrotation Xrotation Yrotation
      JOINT AnkleRight
      {
        OFFSET -2.758826 -35.985162 -1.998139
        CHANNELS 3 Zrotation Xrotation Yrotation
        JOINT FootRight
        {
          OFFSET -2.435939 -4.814095 2.125668
          CHANNELS 3 Zrotation Xrotation Yrotation
          End Site
          {
            OFFSET 0 0 0
          }
        }
      }
    }
  }
}
MOTION
Frames: 10
Frame Time: 0.033333
-25.011810 72.690458 255.227675 0.042377 -0.297901 17.111156 0.047149 0.297183 -17.111168 -0.000000 0.000000 0.000000 -0.000000 0.000000 0.000000 0.000000 0.000000 0.000000 0.597648 1.338731 1.183519 -0.249841 -2.152447 -1.667445 -0.056831 2.158565 0.567110 -0.361532 0.741401 0.941510 0.000000 0.000000 0.000000 0.000000 0.000000 0.000000 1.526714 0.850982 0.122332 -0.287750 2.951167 1.057633 0.218022 -24.985311 5.845746 -7.864510 20.571077 -2.622321 0.000000 0.000000 0.000000 0.000000 0.000000 0.000000 0.152094 -1.325524 -17.094582 -1.768760 2.283877 -0.029996 3.313551 2.542522 3.729505 0.000000 0.000000 0.000000 0.198727 2.373291 -17.039896 0.463617 -2.029368 -0.066593 2.574870 3.413478 -0.684118 0.000000 0.000000 0.000000
-24.896919 72.909378 255.238065 0.145778 -0.269454 18.236903 -0.054132 0.301540 -18.236418 -0.000000 0.000000 0.000000 -0.000000 0.000000 0.000000 0.000000 0.000000 0.000000 1.356443 1.315225 0.761846 -1.071047 -2.048691 -1.221020 -0.373103 3.483057 0.448467 1.592655 -2.011188 0.272861 0.000000 0.000000 0.000000 0.000000 0.000000 0.000000 1.781210 0.984494 0.138772 -0.369440 3.621666 1.263199 1.745591 -27.473428 6.439516 -7.349575 19.552460 -3.909563 0.000000 0.000000 0.000000 0.000000 0.000000 0.000000 0.110823 -1.044618 -18.223203 -2.094248 1.954361 -0.038315 1.770834 1.169178 4.039085 0.000000 0.000000 0.000000 -0.038331 2.145118 -18.153909 0.559564 -1.756707 -0.074267 4.266018 4.040785 -0.322624 0.000000 0.000000 0.000000
-24.775017 73.082708 255.238907 0.257056 -0.218286 18.936829 -0.172306 0.289891 -18.935903 -0.000000 0.000000 0.000000 -0.000000 0.000000 0.000000 0.000000 0.000000 0.000000 1.401371 -0.156173 -0.875460 -3.907323 -2.085418 -0.240819 1.317125 3.114145 0.811309 2.664171 -1.838824 -0.290507 0.000000 0.000000 0.000000 0.000000 0.000000 0.000000 2.100307 1.209708 0.170000 -0.369005 3.831428 1.393161 2.759451 -28.540364 6.694124 -4.775395 19.402356 -5.714540 0.000000 0.000000 0.000000 0.000000 0.000000 0.000000 0.939761 -0.661472 -18.931742 -3.904979 0.765718 -0.074266 2.277152 0.029739 1.217845 0.000000 0.000000 0.000000 -0.277213 2.025761 -18.841031 0.660060 -1.608938 -0.083484 7.018013 5.578325 -0.068096 0.000000 0.000000 0.000000
-24.638199 73.258989 255.219359 0.399706 -0.137360 20.240894 -0.327504 0.267159 -20.239651 -0.000000 0.000000 0.000000 -0.680091 -0.878787 0.393954 0.000000 0.000000 0.000000 0.499037 -4.214862 -5.053460 -7.516894 -1.315329 2.912128 5.055245 4.204769 1.742069 0.648216 -3.334593 -1.570369 0.000000 0.000000 0.000000 0.000000 0.000000 0.000000 2.386352 1.440990 0.202654 -0.217179 3.750997 1.479507 3.251425 -28.741302 6.698665 -0.951095 19.555075 -7.863793 0.000000 0.000000 0.000000 0.000000 0.000000 0.000000 2.141924 -0.157886 -20.258090 -6.255958 -1.077136 -0.191671 1.689661 -0.373611 1.687276 0.000000 0.000000 0.000000 -0.653816 1.752605 -20.126638 0.817682 -1.282380 -0.098110 12.240199 -0.108754 5.799548 0.000000 0.000000 0.000000
-24.513534 73.357487 255.182124 0.522212 -0.043376 21.054265 -0.471770 0.228083 -21.053128 -0.000000 0.000000 0.000000 -0.973649 -1.099478 0.539175 0.000000 0.000000 0.000000 -6.924225 -18.195311 -21.226809 -9.218278 6.929314 18.048016 10.669374 7.569782 3.005533 -3.139691 -3.250690 -1.646597 0.000000 0.000000 0.000000 0.000000 0.000000 0.000000 2.701963 1.618541 0.222322 -0.156437 3.592361 1.535083 3.773087 -28.219055 6.495474 1.053444 19.943136 -8.819691 0.000000 0.000000 0.000000 0.000000 0.000000 0.000000 1.909665 -0.050699 -21.073957 -6.058515 -1.401076 -0.201964 -0.727038 1.652851 11.345301 0.000000 0.000000 0.000000 -1.017700 1.556355 -20.920857 0.984369 -1.045651 -0.114787 13.021332 11.048589 -1.220977 0.000000 0.000000 0.000000
-24.408014 73.419838 255.114274 0.632648 0.092373 21.785179 -0.621748 0.149018 -21.784880 0.657821 0.772433 0.046849 -1.966390 -2.069098 0.622119 0.000000 0.000000 0.000000 -77.118696 -24.415905 -113.960475 -31.496501 47.391646 99.971515 17.877996 11.950288 3.939924 -9.090436 -2.200931 -1.045270 0.000000 0.000000 0.000000 0.000000 0.000000 0.000000 2.358645 0.949134 0.212096 -0.019147 3.591249 1.641164 5.384226 -28.188802 6.592627 -0.143393 20.833662 -8.466452 0.000000 0.000000 0.000000 0.000000 0.000000 0.000000 0.476055 -0.196497 -21.790416 -3.865093 -0.365294 -0.113769 -5.555296 0.827913 19.917725 0.000000 0.000000 0.000000 -1.414890 1.316409 -21.632736 1.167733 -0.792614 -0.133923 14.643957 21.541945 -8.597484 0.000000 0.000000 0.000000
-24.328950 73.460332 255.043552 0.688068 0.208529 22.224908 -0.715822 0.067229 -22.225740 0.647350 0.874915 0.045086 -1.967092 -2.036503 0.606185 0.000000 0.000000 0.000000 -96.107406 -0.191792 -133.781154 -51.099976 56.761969 139.345100 25.547872 17.682251 4.267167 -16.799404 -3.086382 -1.329486 0.000000 0.000000 0.000000 0.000000 0.000000 0.000000 2.634003 0.867297 0.213228 -0.364022 3.349156 1.575165 7.149527 -27.641398 6.740661 1.201365 20.976684 -9.334269 0.000000 0.000000 0.000000 0.000000 0.000000 0.000000 -0.715822 0.067229 -22.225740 -2.438903 -0.345508 -0.102908 -7.463222 1.357363 25.558958 0.000000 0.000000 0.000000 -1.694724 1.147856 -22.058455 1.313143 -0.633714 -0.149642 15.840944 28.885759 -14.628695 0.000000 0.000000 0.000000
-24.271063 73.479623 254.959584 0.731545 0.344927 22.507402 -0.807860 -0.038596 -22.509876 0.632826 1.017232 0.042669 -2.058526 -2.061737 0.627189 0.000000 0.000000 0.000000 -102.950976 8.661551 -132.249610 -52.140263 64.386244 144.063291 32.603633 21.735831 3.760142 -23.799381 -3.028144 -1.546825 0.000000 0.000000 0.000000 0.000000 0.000000 0.000000 2.926720 0.611515 0.192710 -1.374984 2.952742 1.327018 9.302871 -26.252084 6.785333 -0.684418 18.261125 -8.363782 0.000000 0.000000 0.000000 0.000000 0.000000 0.000000 -0.807860 -0.038596 -22.509876 -2.054849 0.026117 -0.085115 -9.553583 0.269157 28.755429 0.000000 0.000000 0.000000 -1.931807 0.975524 -22.332324 1.425035 -0.510793 -0.162009 14.491073 32.372134 -17.964488 0.000000 0.000000 0.000000
-24.186811 73.501517 254.837912 0.805575 0.515369 22.445145 -0.217959 0.275902 -22.432731 0.076705 0.442572 0.023255 -2.109068 -1.841726 0.624548 0.000000 0.000000 0.000000 -103.828384 11.246364 -134.143414 -47.825358 63.002093 142.915506 36.261378 18.213561 2.952634 -23.366340 0.286246 -0.093362 0.000000 0.000000 0.000000 0.000000 0.000000 0.000000 3.251301 0.289334 0.158864 -2.607655 2.259456 0.952333 10.817729 -24.237244 6.665204 -1.479930 19.748866 -7.573645 0.000000 0.000000 0.000000 0.000000 0.000000 0.000000 -0.941316 -0.168717 -22.450154 -1.540286 0.372634 -0.064788 -11.555479 -1.155844 30.600101 0.000000 0.000000 0.000000 -2.233005 0.790353 -22.260722 1.558766 -0.398089 -0.177008 13.637545 33.198629 -18.792277 0.000000 0.000000 0.000000
-24.194876 73.511907 254.750753 0.774834 0.628873 22.271548 -0.266126 0.241608 -22.261919 0.018987 0.425354 0.015506 -1.829718 -1.595208 0.535412 0.000000 0.000000 0.000000 -107.260912 14.143923 -130.861175 -48.804717 67.289728 144.601653 39.143836 15.728691 2.451879 -23.236290 4.390703 1.595063 0.000000 0.000000 0.000000 0.000000 0.000000 0.000000 3.733933 -0.090078 0.104002 -3.626030 2.643731 0.906562 11.831712 -23.888917 6.697392 -1.246505 17.532928 -7.664491 0.000000 0.000000 0.000000 0.000000 0.000000 0.000000 -0.955378 -0.288244 -22.278204 -1.206728 0.481092 -0.052638 -12.205923 -2.754652 27.480085 0.000000 0.000000 0.000000 -2.237111 0.623451 -22.095641 1.530562 -0.362478 -0.173971 12.239657 31.978730 -17.811658 0.000000 0.000000 0.000000
